<svg width="192" height="192" viewBox="0 0 192 192" fill="none" xmlns="http://www.w3.org/2000/svg">
<rect width="192" height="192" fill="#845C30"/>
<path d="M28.4952 172.718C20.0426 173.575 15.532 167.989 14.7547 160.325C13.8901 151.801 19.0354 145.091 27.2731 144.256C34.1499 143.558 38.6294 147.41 39.1016 152.066C39.3559 154.573 38.5175 157.01 34.8243 156.987C31.783 156.969 31.467 153.853 31.6181 151.776L31.8819 148.311C32.005 146.671 31.0006 145.687 29.4547 146.857L18.598 155.05C17.2884 156.051 17.3475 157.348 18.8954 157.625L25.5239 158.762C28.1396 159.221 29.4979 162.267 26.6528 164.184L24.7882 165.422C20.0427 168.581 26.9099 173.855 29.7842 169.728L34.4244 163.034C36.8875 159.491 40.5184 161.041 40.7836 163.655C41.1032 166.807 35.3003 172.027 28.4952 172.718ZM56.1041 152.983C52.9228 150.158 55.5147 146.457 59.3511 148.963L63.8472 151.908C64.6611 152.441 65.2804 152.125 65.5378 151.809C65.8919 151.375 66.0808 150.741 65.281 149.99L62.9602 147.801C61.1991 146.134 60.3167 145.283 60.1823 143.958C60.0079 142.238 61.0949 140.825 63.1364 140.618C65.7152 140.357 66.8815 141.867 67.1975 144.983L68.5597 158.414C69.2608 165.327 65.4688 168.968 57.6967 169.756C50.4618 170.49 45.0833 166.693 44.3931 159.888L43.2162 148.284C42.813 144.308 44.118 142.547 46.84 142.271C50.6724 141.883 52.0213 145.907 50.56 148.624L46.8157 155.59C45.5689 157.923 46.2664 159.807 48.4886 160.667L59.1907 164.864C62.4308 166.128 64.3072 165.72 65.2291 164.107C66.1511 162.494 65.1244 160.934 64.2134 160.157L56.1041 152.983ZM85.3967 138.904C93.2405 138.108 97.107 141.624 97.8444 148.895C98.3892 154.267 96.5433 158.543 91.135 159.092C88.0548 159.404 85.8145 158.365 83.0952 155.456L78.4278 150.466C77.4161 149.41 75.7255 149.51 74.7387 150.84C73.8807 152.012 74.2196 153.57 75.2561 154.514L80.1628 159.01C81.802 160.545 82.5489 161.844 82.7269 163.599C82.9812 166.106 81.55 167.337 78.7922 167.617C76.3209 167.867 73.9809 167.272 73.5232 162.759L71.9576 147.323C71.5508 143.311 73.4341 140.117 78.0902 139.645L85.3967 138.904ZM77.2662 147.218C77.328 147.827 77.7406 148.328 78.6832 148.703L91.7508 153.746C95.5535 155.206 97.3267 152.71 95.1955 150.249L88.9595 142.993C87.4849 141.297 86.822 141.183 84.9679 142.168L78.6179 145.562C77.7267 146.05 77.1899 146.466 77.2662 147.218ZM114.253 135.977C122.096 135.182 125.963 138.697 126.7 145.968C127.245 151.341 125.399 155.617 119.991 156.165C116.911 156.477 114.67 155.438 111.951 152.53L107.284 147.539C106.272 146.484 104.581 146.583 103.595 147.913C102.737 149.086 103.075 150.644 104.112 151.588L109.019 156.084C110.658 157.618 111.405 158.917 111.583 160.672C111.837 163.18 110.406 164.41 107.648 164.69C105.177 164.941 102.837 164.346 102.379 159.833L100.814 144.396C100.407 140.385 102.29 137.19 106.946 136.718L114.253 135.977ZM106.122 144.292C106.184 144.901 106.596 145.402 107.539 145.776L120.607 150.82C124.409 152.279 126.183 149.784 124.051 147.322L117.815 140.066C116.341 138.371 115.678 138.257 113.824 139.241L107.474 142.635C106.583 143.123 106.046 143.54 106.122 144.292ZM131.558 139.396C131.706 135.51 132.954 133.538 135.389 133.291C137.431 133.084 139.861 134.212 140.137 136.934C140.232 137.865 140.058 139.005 139.508 140.363L133.375 155.17C132.878 156.342 132.547 157.352 132.619 158.069C132.714 159 133.563 159.529 134.172 159.467C134.924 159.391 135.883 158.497 137.568 156.915L140.605 154.038C141.861 152.861 143.071 152.305 144.146 152.196C146.509 151.956 148.292 153.838 148.499 155.879C148.706 157.921 147.373 160.118 143.613 160.5L136.485 161.223C132.581 161.619 131.408 160.399 131.034 156.71C130.976 156.137 130.946 155.488 130.981 154.761L131.558 139.396ZM173.904 150.444C176.129 150.978 177.002 152.446 177.125 153.663C177.314 155.526 176.346 157.759 173.911 158.006C172.657 158.133 170.697 157.717 169.073 156.325L161.391 149.795C161.075 149.538 160.458 149.166 160.029 149.21C159.384 149.275 159.041 149.816 159.211 151.5L159.458 153.935C159.731 156.622 158.753 159.471 156.175 159.732C153.596 159.994 151.649 158.635 151.445 156.63C151.336 155.555 151.682 154.326 152.744 153.024L168.361 133.963C169.326 132.78 167.938 131.22 166.628 132.221L157.947 138.674C156.333 139.887 154.776 140.588 153.451 140.722C151.373 140.933 149.77 139.757 149.293 136.838C148.759 133.708 151.214 132.228 154.473 131.898L168.012 130.525C172.525 130.067 175.124 131.794 175.368 134.193C175.589 136.378 173.795 139.021 169.818 141.197L161.625 145.683C160.39 146.351 160.467 147.826 161.868 148.082L173.904 150.444Z" fill="white"/>
<path d="M55.3272 69.5751C54.7053 60.2454 54.3943 55.5805 57.1607 52.6236C59.9271 49.6667 64.6022 49.6667 73.9526 49.6667H99.381C108.731 49.6667 113.406 49.6667 116.173 52.6236C118.939 55.5805 118.628 60.2454 118.006 69.5751L116.409 93.5291C115.583 105.919 115.17 112.114 111.134 115.89C107.097 119.667 100.888 119.667 88.4713 119.667H84.8622C72.4451 119.667 66.2366 119.667 62.1999 115.89C58.1632 112.114 57.7502 105.919 56.9242 93.5291L55.3272 69.5751Z" stroke="#FCF6EC" stroke-width="5"/>
<path d="M119.333 96.3333H124C134.309 96.3333 142.667 87.9758 142.667 77.6667C142.667 67.3575 134.309 59 124 59H119.333" stroke="#FCF6EC" stroke-width="5"/>
<path d="M114.667 101H58.6667" stroke="#FCF6EC" stroke-width="5"/>
<path d="M68.2371 40.6199L70.1533 37.9334C71.2116 36.4498 70.8668 34.3891 69.3831 33.3308C67.8994 32.2725 67.5546 30.2118 68.6129 28.7281L70.5291 26.0417M105.57 40.6199L107.487 37.9334C108.545 36.4498 108.2 34.3891 106.717 33.3308C105.233 32.2725 104.888 30.2118 105.946 28.7281L107.862 26.0417M86.9037 40.6199L88.8199 37.9334C89.8783 36.4498 89.5334 34.3891 88.0499 33.3308C86.5661 32.2725 86.2212 30.2118 87.2794 28.7281L89.1955 26.0417" stroke="#FCF6EC" stroke-width="5" stroke-linecap="round"/>
</svg>
